<svg width="200" height="150" viewBox="0 0 200 150" xmlns="http://www.w3.org/2000/svg">
  <defs>
    <linearGradient id="olvGradient" x1="0%" y1="0%" x2="100%" y2="100%">
      <stop offset="0%" style="stop-color:#f4e4bc;stop-opacity:1" />
      <stop offset="100%" style="stop-color:#d4af37;stop-opacity:1" />
    </linearGradient>
    <linearGradient id="maskGradient" x1="0%" y1="0%" x2="100%" y2="100%">
      <stop offset="0%" style="stop-color:#2c2c2c;stop-opacity:1" />
      <stop offset="100%" style="stop-color:#1a1a1a;stop-opacity:1" />
    </linearGradient>
  </defs>
  
  <!-- Main unit -->
  <rect x="60" y="60" width="80" height="50" rx="8" fill="url(#olvGradient)" stroke="#d4af37" stroke-width="2"/>
  
  <!-- Display screen -->
  <rect x="70" y="70" width="35" height="20" rx="3" fill="#1a1a1a" stroke="#d4af37" stroke-width="1"/>
  <text x="87" y="80" text-anchor="middle" font-family="Arial, sans-serif" font-size="6" fill="#00ff00">OLV-10</text>
  <text x="87" y="87" text-anchor="middle" font-family="Arial, sans-serif" font-size="4" fill="#00ff00">O₂</text>
  
  <!-- Control buttons -->
  <circle cx="115" cy="75" r="3" fill="#d4af37"/>
  <circle cx="125" cy="75" r="3" fill="#d4af37"/>
  <circle cx="115" cy="85" r="3" fill="#d4af37"/>
  <circle cx="125" cy="85" r="3" fill="#d4af37"/>
  
  <!-- Oxygen mask -->
  <ellipse cx="100" cy="40" rx="25" ry="12" fill="url(#maskGradient)" stroke="#d4af37" stroke-width="1" opacity="0.8"/>
  <ellipse cx="100" cy="40" rx="20" ry="8" fill="#f8f4e6" stroke="#d4af37" stroke-width="1"/>
  
  <!-- Oxygen tubes -->
  <path d="M 80 40 Q 70 50 75 60" stroke="#d4af37" stroke-width="3" fill="none"/>
  <path d="M 120 40 Q 130 50 125 60" stroke="#d4af37" stroke-width="3" fill="none"/>
  
  <!-- Oxygen bubbles -->
  <circle cx="90" cy="30" r="2" fill="#d4af37" opacity="0.8"/>
  <circle cx="100" cy="25" r="1.5" fill="#d4af37" opacity="0.6"/>
  <circle cx="110" cy="30" r="2" fill="#d4af37" opacity="0.8"/>
  <circle cx="95" cy="20" r="1" fill="#d4af37" opacity="0.4"/>
  <circle cx="105" cy="20" r="1" fill="#d4af37" opacity="0.4"/>
  
  <!-- Flow indicator -->
  <path d="M 140 75 L 145 70 L 150 75 L 145 80 Z" fill="#d4af37"/>
  <text x="155" y="78" font-family="Arial, sans-serif" font-size="6" fill="#d4af37">Flow</text>
  
  <!-- Brand text -->
  <text x="100" y="125" text-anchor="middle" font-family="Arial, sans-serif" font-size="8" fill="#d4af37">OLV-10</text>
  <text x="100" y="135" text-anchor="middle" font-family="Arial, sans-serif" font-size="6" fill="#8b4513">Oxigenoterapia</text>
</svg>