<svg width="13" height="14" viewBox="0 0 13 14" fill="none" xmlns="http://www.w3.org/2000/svg">
<g clip-path="url(#clip0_36_20)">
<path d="M9.481 0.302734H3.51898C1.57858 0.302734 0 1.88131 0 3.82171V9.78383C0 11.7241 1.57858 13.3027 3.51898 13.3027H9.4811C11.4214 13.3027 13 11.7241 13 9.78383V3.82171C13 1.88131 11.4214 0.302734 9.481 0.302734V0.302734ZM12.2379 9.78383C12.2379 11.3039 11.0012 12.5406 9.481 12.5406H3.51898C1.99881 12.5406 0.762114 11.3039 0.762114 9.78383V3.82171C0.762114 2.30155 1.99881 1.06485 3.51898 1.06485H9.4811C11.0012 1.06485 12.2379 2.30155 12.2379 3.82171V9.78383Z" fill="black"/>
<path d="M6.49999 3.24805C4.53995 3.24805 2.9454 4.84259 2.9454 6.80263C2.9454 8.76266 4.53995 10.3572 6.49999 10.3572C8.46002 10.3572 10.0546 8.76266 10.0546 6.80263C10.0546 4.84259 8.46002 3.24805 6.49999 3.24805ZM6.49999 9.5951C4.96028 9.5951 3.70752 8.34243 3.70752 6.80263C3.70752 5.26293 4.96028 4.01016 6.49999 4.01016C8.03978 4.01016 9.29245 5.26293 9.29245 6.80263C9.29245 8.34243 8.03978 9.5951 6.49999 9.5951Z" fill="black"/>
<path d="M10.1396 1.98584C9.56035 1.98584 9.08923 2.45705 9.08923 3.03618C9.08923 3.6154 9.56035 4.08661 10.1396 4.08661C10.7188 4.08661 11.19 3.6154 11.19 3.03618C11.19 2.45695 10.7188 1.98584 10.1396 1.98584ZM10.1396 3.3244C9.98068 3.3244 9.85135 3.19507 9.85135 3.03618C9.85135 2.87719 9.98068 2.74795 10.1396 2.74795C10.2986 2.74795 10.4279 2.87719 10.4279 3.03618C10.4279 3.19507 10.2986 3.3244 10.1396 3.3244Z" fill="black"/>
</g>
<defs>
<clipPath id="clip0_36_20">
<rect width="13" height="13" fill="white" transform="translate(0 0.302734)"/>
</clipPath>
</defs>
</svg>
